<svg width="132" height="468" viewBox="0 0 132 468" fill="none" xmlns="http://www.w3.org/2000/svg">
<path d="M126.5 5.5V396.21C124.245 409.341 119.842 419.24 110.746 429.11C101.704 438.923 87.8919 448.857 66.3643 461.627C45.3564 449.368 31.7673 439.677 22.6318 429.869C13.4239 419.983 8.56398 409.781 5.5 396.077V5.5H126.5Z" fill="#BA7625" stroke="#5E3225" stroke-width="11"/>
<path d="M105.128 160.651C104.777 160.104 104.09 159.4 103.052 159.048C102.537 158.86 101.944 158.782 101.312 158.805C101.163 158.813 100.984 158.805 100.851 158.829C100.687 158.86 100.515 158.883 100.344 158.907C100.016 158.977 99.7192 159.056 99.3992 159.173C98.7592 159.4 98.1503 159.76 97.5649 160.182C97.2761 160.401 97.0107 160.643 96.7376 160.886C96.4878 161.16 96.2146 161.402 95.9883 161.7C95.0204 162.826 94.2789 164.14 93.6701 165.415C93.3969 166.064 93.1003 166.682 92.8817 167.3C92.6397 167.903 92.4602 168.497 92.2885 169.037C92.109 169.584 91.9919 170.093 91.8514 170.539C91.7109 170.985 91.625 171.384 91.547 171.704C91.3831 172.361 91.2894 172.729 91.2894 172.729C91.2894 172.729 91.3284 172.346 91.3987 171.681C91.4377 171.345 91.4845 170.938 91.5704 170.476C91.6485 170.015 91.7109 169.483 91.867 168.927C92.1246 167.801 92.4836 166.487 93.0378 165.134C93.3422 164.469 93.6466 163.772 94.0447 163.115C94.435 162.45 94.8877 161.801 95.395 161.191C95.637 160.886 95.9414 160.62 96.2068 160.331C96.5034 160.072 96.8 159.806 97.12 159.58C97.7601 159.118 98.4547 158.75 99.1806 158.516C99.5319 158.406 99.93 158.312 100.273 158.273C100.445 158.258 100.617 158.25 100.789 158.234C100.991 158.211 101.14 158.234 101.319 158.242C102.006 158.258 102.654 158.398 103.208 158.641C103.762 158.876 104.215 159.212 104.551 159.564C104.879 159.916 105.105 160.276 105.261 160.581C105.558 161.191 105.597 161.582 105.597 161.582C105.597 161.582 105.487 161.207 105.128 160.651ZM81.6654 208C81.6654 208 81.923 203.502 85.8881 203.628C89.861 203.761 86.7389 210.472 81.6654 208ZM46.1119 203.628C50.077 203.502 50.3346 208 50.3346 208C45.2611 210.472 42.139 203.761 46.1119 203.628ZM40.453 171.704C40.375 171.384 40.2891 170.985 40.1486 170.539C40.0081 170.093 39.891 169.584 39.7115 169.037C39.5398 168.497 39.3603 167.903 39.1183 167.3C38.8997 166.682 38.6031 166.064 38.3299 165.415C37.7211 164.14 36.9796 162.826 36.0117 161.7C35.7854 161.402 35.5122 161.16 35.2624 160.886C34.9892 160.643 34.7239 160.401 34.4351 160.182C33.8497 159.76 33.2408 159.4 32.6008 159.173C32.2808 159.056 31.9842 158.977 31.6564 158.907C31.4846 158.883 31.3129 158.86 31.149 158.829C31.0163 158.805 30.8368 158.813 30.6885 158.805C30.0562 158.782 29.463 158.86 28.9479 159.048C27.9098 159.4 27.2229 160.104 26.8717 160.651C26.5126 161.207 26.4033 161.582 26.4033 161.582C26.4033 161.582 26.4424 161.191 26.739 160.581C26.8951 160.276 27.1214 159.916 27.4493 159.564C27.7849 159.212 28.2376 158.876 28.7918 158.641C29.346 158.398 29.9938 158.258 30.6807 158.242C30.8602 158.234 31.0085 158.211 31.2114 158.234C31.3832 158.25 31.5549 158.258 31.7266 158.273C32.07 158.312 32.4681 158.406 32.8194 158.516C33.5453 158.75 34.2399 159.118 34.88 159.58C35.2 159.806 35.4966 160.072 35.7932 160.331C36.0586 160.62 36.363 160.886 36.605 161.191C37.1123 161.801 37.565 162.45 37.9553 163.115C38.3534 163.772 38.6578 164.469 38.9622 165.134C39.5164 166.487 39.8754 167.801 40.133 168.927C40.2891 169.483 40.3515 170.015 40.4296 170.476C40.5155 170.938 40.5623 171.345 40.6013 171.681C40.6716 172.346 40.7106 172.729 40.7106 172.729C40.7106 172.729 40.6169 172.361 40.453 171.704ZM105.573 156.31C104.324 155.41 102.748 155.121 101.218 155.301C87.8941 156.897 87.7145 175.467 87.7145 175.467C86.0832 176.249 83.6792 173.253 83.6792 173.253C83.0313 175.013 84.9514 178.244 84.9514 178.244L76.0689 219.992H55.9311L47.0485 178.244C47.0485 178.244 48.9687 175.013 48.3208 173.253C48.3208 173.253 45.9168 176.249 44.2854 175.467C44.2854 175.467 44.1059 156.897 30.7822 155.301C29.2523 155.121 27.6756 155.41 26.4267 156.31C24.3817 157.804 22.446 161.246 25.8804 169.084C25.8804 169.084 29.9158 175.733 32.5774 178.338L27.4415 178.4C27.4415 178.4 30.626 181.138 31.0866 185.832C31.5002 190.165 31.149 287.632 31.0944 302.667C31.0866 303.832 30.5324 304.912 29.6192 305.632C27.6444 307.18 24.7174 310.216 27.8942 312.75C27.8942 312.75 26.9887 310.865 28.6123 310.865H43.5752C43.5752 310.865 47.9306 310.278 47.8681 304.02C47.7979 297.762 47.8681 236.482 47.8681 236.482H58.4678V236.106C58.4678 234.933 59.4201 233.971 60.5987 233.971H71.4013C72.5799 233.971 73.5322 234.933 73.5322 236.106V236.482H84.1319C84.1319 236.482 84.2021 297.762 84.1319 304.02C84.0694 310.278 88.4248 310.865 88.4248 310.865H103.388C105.011 310.865 104.106 312.75 104.106 312.75C107.283 310.216 104.356 307.18 102.381 305.632C101.468 304.912 100.913 303.832 100.906 302.667C100.851 287.632 100.5 190.165 100.913 185.832C101.374 181.138 104.559 178.4 104.559 178.4L99.4226 178.338C102.084 175.733 106.12 169.084 106.12 169.084C109.554 161.246 107.618 157.804 105.573 156.31Z" fill="#5E3225"/>
<path d="M67.9904 242.09C67.1865 242.09 66.5386 241.66 66.5386 241.128C66.5386 240.596 67.1865 240.166 67.9904 240.166C68.7866 240.166 69.4344 240.596 69.4344 241.128C69.4344 241.66 68.7866 242.09 67.9904 242.09ZM63.6429 242.09C62.8467 242.09 62.1989 241.66 62.1989 241.128C62.1989 240.596 62.8467 240.166 63.6429 240.166C64.4468 240.166 65.0947 240.596 65.0947 241.128C65.0947 241.66 64.4468 242.09 63.6429 242.09ZM73.7898 237.397L71.9985 235.696C71.52 235.241 70.8855 234.988 70.2259 234.988H61.3442C60.7322 234.988 60.1398 235.206 59.6738 235.603L57.7264 237.264C57.7264 237.264 57.0083 243.006 65.7893 243.006C74.5704 243.006 73.7898 237.397 73.7898 237.397Z" fill="#5E3225"/>
</svg>
