<svg width="132" height="468" viewBox="0 0 132 468" fill="none" xmlns="http://www.w3.org/2000/svg">
<path d="M126.5 5.5V396.21C124.245 409.341 119.842 419.24 110.746 429.11C101.704 438.923 87.8919 448.857 66.3643 461.627C45.3564 449.368 31.7673 439.677 22.6318 429.869C13.4239 419.983 8.56398 409.781 5.5 396.077V5.5H126.5Z" fill="#134731" stroke="#88898D" stroke-width="11"/>
<path d="M58.5712 300.369L64.8357 302.006C64.8357 302.006 51.4293 313.088 34.5142 318C34.5142 318 56.1903 304.777 58.5712 300.369Z" fill="#88898D"/>
<path d="M87.5695 187.699C89.482 187.908 90.0993 186.538 90.8676 185.424C91.033 185.185 91.0157 184.832 90.7262 184.62C90.3586 184.351 90.0106 184.533 89.7091 184.752C88.7882 185.423 88.0732 186.262 87.5695 187.699ZM78.4256 187.747C79.0038 187.849 79.3962 187.631 79.2075 187.207C78.6888 186.042 77.961 184.988 76.7221 184.49C76.2718 184.309 75.9884 184.74 76.0741 185.124C76.3755 186.476 77.3754 187.217 78.4256 187.747ZM95.4061 229.173C94.2461 224.077 97.6193 218.691 92.208 214.964C91.657 216.882 92.1546 218.708 90.5774 220.102C90.0361 219.065 90.2827 218.017 90.1714 217.052C89.9482 215.119 89.243 213.534 87.2673 212.898C83.8422 211.796 82.8724 209.115 82.7025 205.899C82.6078 204.103 82.0988 202.731 81.0381 201.032C77.3002 195.043 73.2196 188.932 74.4841 181.17C74.7299 179.662 74.981 178.139 75.941 176.956C79.8773 172.103 76.7777 165.797 72.4061 163.043C68.0345 160.291 63.8975 160.666 60.0875 164.147C52.4299 171.143 51.0707 182.743 56.7376 191.762C60.9197 198.417 66.5099 203.713 72.5588 208.548C80.4449 214.85 87.9169 221.53 93.4552 230.111C101.862 243.137 105.768 257.111 102.15 272.617C95.6835 300.331 69.0893 304.851 51.8232 295.923C36.8523 288.181 27.0656 270.28 28.6721 253.453C29.2668 247.227 31.253 241.52 36.0847 237.234C43.8904 230.309 56.1256 231.211 64.1095 239.337C68.5969 243.903 71.183 249.562 72.6557 255.726C74.5419 263.621 74.4367 271.513 72.3896 279.398C71.8408 281.511 70.8214 282.53 68.6337 282.251C68.1902 282.194 67.7361 282.229 67.288 282.2C63.8471 281.975 63.884 281.973 63.7772 278.573C63.4697 268.775 60.7739 259.599 56.4316 250.888C55.3182 248.654 53.7447 246.718 51.5225 245.44C48.474 243.686 45.4286 244.386 43.5333 247.363C41.1306 251.139 41.0953 255.347 42.347 259.351C45.1534 268.331 50.0054 276.012 58.1223 281.132C65.2876 285.651 79.2391 285.767 84.4639 274.465C86.7832 269.447 87.8108 264.147 87.232 258.651C85.9111 246.109 79.6992 236.153 70.5808 227.866C65.6988 223.429 60.5604 219.276 55.6994 214.816C48.6041 208.308 42.2756 201.111 39.7286 191.532C35.9185 177.206 39.2797 163.275 51.7089 154.946C59.4951 149.728 67.9451 147.965 76.686 152.977C80.7141 155.288 83.5866 158.728 85.4382 162.974C86.7298 165.934 87.8785 168.961 88.525 172.15C88.7521 173.267 89.1483 174.314 89.8256 175.243C93.4018 180.143 93.456 185.47 91.4562 190.906C90.3173 194.001 88.8062 196.959 87.4485 199.972C87.2651 200.38 87.0891 200.949 86.7538 201.105C83.9272 202.425 84.9834 204.836 85.0962 206.945C85.239 209.622 87.011 210.813 89.3415 211.538C91.0638 212.073 92.6328 212.987 94.0927 214.051C97.0525 216.208 98.0516 218.988 97.1585 222.551C96.6533 224.567 96.097 226.571 95.4061 229.173Z" fill="#88898D"/>
</svg>
