<svg width="132" height="468" viewBox="0 0 132 468" fill="none" xmlns="http://www.w3.org/2000/svg">
<path d="M126.5 5.5V396.21C124.245 409.341 119.842 419.24 110.746 429.11C101.704 438.923 87.8919 448.857 66.3643 461.627C45.3564 449.368 31.7673 439.677 22.6318 429.869C13.4239 419.983 8.56398 409.781 5.5 396.077V5.5H126.5Z" fill="#063E53" stroke="#799ABF" stroke-width="11"/>
<path d="M35.5114 169.246C33.3466 170.046 33.0509 171.482 32.8608 172.954C32.8058 173.379 32.8344 173.961 33.3353 174.102C34.125 174.326 34.0707 173.569 34.2253 173.128C34.6138 172.022 34.9653 170.904 35.5114 169.246ZM54.4436 204.92C54.4436 209.655 54.47 214.391 54.43 219.126C54.4149 220.853 54.97 221.109 56.3873 220.191C59.6005 218.111 62.8839 216.138 66.0842 214.038C68.9052 212.187 70.4726 209.53 70.5095 206.118C70.5631 201.158 70.6227 196.194 70.4945 191.237C70.4009 187.65 67.8884 185.39 64.2928 185.032C61.0465 184.708 58.8364 186.811 56.2742 188.133C54.9188 188.831 54.3862 189.833 54.4157 191.39C54.5016 195.898 54.4458 200.41 54.4436 204.92ZM74.9175 158.871C76.1809 158.022 77.5665 157.493 79.0569 157.184C82.0325 156.567 84.7125 155.313 87.2657 153.634C89.3739 152.247 91.9188 151.651 94.0775 150.276C95.3258 149.481 95.9504 150.568 95.6977 151.443C94.7941 154.564 95.8908 157.845 94.5685 160.977C93.5239 163.451 91.878 164.979 89.6597 166.267C84.9855 168.98 80.8114 172.427 76.4668 175.622C76.196 175.821 75.8355 176.061 76.0165 176.664C77.0038 176.567 77.8931 176.123 78.541 175.445C81.4691 172.378 85.5195 171.251 89.2336 170.007C91.8697 169.124 92.842 166.753 95.1425 165.743C96.9286 164.959 98.3225 163.292 100.366 162.785C101.193 162.58 101.731 161.904 102.225 161.217C102.587 160.715 103.051 160.307 103.75 160.613C104.351 160.876 104.319 161.44 104.334 161.964C104.392 164.056 103.559 165.927 102.819 167.806C102.43 168.796 102.013 169.743 102.138 170.841C102.486 173.919 101.027 175.982 98.493 177.516C92.004 181.446 85.5384 185.412 79.0743 189.383C78.3374 189.835 77.427 190.143 77.0476 191.293C78.5372 191.667 79.5849 190.843 80.5315 190.167C85.4909 186.626 91.2362 184.448 96.2279 180.938C98.5571 179.3 100.906 177.683 103.208 176.002C104.506 175.054 105.067 175.021 105.5 176.932C106.725 182.342 103.311 190.858 98.1951 193.402C92.833 196.07 87.8238 199.449 82.9173 202.926C82.0982 203.507 81.1961 204.004 80.7495 205.026C84.5254 202.737 88.4167 200.713 92.3291 198.729C93.6302 198.069 95.2444 196.682 96.3916 197.751C97.5102 198.793 96.823 200.701 96.246 202.224C95.5091 204.17 94.4825 205.976 94.0594 208.088C93.7509 209.626 92.1775 210.53 90.8341 211.4C86.62 214.126 82.8743 217.51 78.4777 219.983C78.5735 220.147 78.6692 220.31 78.7658 220.473C79.7275 219.897 80.6914 219.322 81.6516 218.741C82.7446 218.082 83.7824 217.299 84.9403 216.787C86.1501 216.252 87.4746 215.976 88.7486 215.587C88.6513 217.107 88.8504 218.722 88.4031 220.131C86.9293 224.766 84.2803 228.495 79.9002 230.988C76.2963 233.039 76.2993 233.406 77.6736 237.279C84.6612 256.971 91.6623 276.659 98.6793 296.341C100.157 300.485 100.198 300.474 96.6669 303.237C94.1771 305.185 92.3004 307.55 91.4398 310.659C90.8409 312.823 90.8055 314.925 92.2967 317.488C89.4493 315.948 88.52 313.795 87.7273 311.577C84.9953 303.933 82.289 296.28 79.5857 288.626C74.253 273.528 68.9045 258.437 63.6336 243.318C63.0226 241.566 62.4502 241.276 60.7991 242.249C54.6208 245.894 54.5823 245.839 54.5612 252.988C54.5167 268.41 54.4368 283.83 54.4896 299.251C54.4971 301.407 53.8409 302.457 51.7938 303.173C46.9929 304.85 43.7917 308.322 41.7635 312.943C41.0666 314.532 41.0907 316.153 41.3637 317.808C41.2981 317.872 41.2325 317.937 41.1669 318C39.3747 316.707 39.1666 314.734 39.1205 312.8C39.0285 308.89 39.0828 304.978 39.0828 301.066C39.0813 262.932 39.0813 224.798 39.0806 186.663C39.0806 186.137 39.1288 185.604 39.07 185.084C38.9109 183.667 39.6515 181.902 37.8881 181.044C35.9858 180.12 34.3867 181.107 32.925 182.235C30.4306 184.161 28.5072 186.514 27.6662 189.631C27.5523 190.051 27.5281 190.544 26.6532 190.741C26.1403 187.277 25.8227 183.84 27.5885 180.701C28.5042 179.073 28.6656 177.496 28.6633 175.758C28.6513 167.207 38.3798 159.08 46.8443 160.598C48.0089 160.807 49.0603 160.67 50.1563 160.347C54.4036 159.093 58.6562 157.854 62.917 156.646C63.8335 156.386 64.8827 155.623 65.3262 157.433C65.5887 158.501 66.5896 157.918 67.1938 157.581C68.4406 156.887 69.5637 156.113 71.1605 156.713C71.9396 157.005 72.6517 156.158 73.3848 155.799C74.0305 155.483 74.7659 154.791 75.407 155.517C75.9169 156.095 75.3278 156.781 75.0193 157.375C74.8474 157.706 74.6942 158.046 74.5328 158.383C74.4182 158.568 74.3035 158.754 74.1896 158.94C74.1082 159.02 74.026 159.099 73.9445 159.179C74.0953 159.161 74.2454 159.145 74.3955 159.128C74.5698 159.043 74.7433 158.957 74.9175 158.871Z" fill="#799ABF"/>
</svg>
