<svg width="132" height="468" viewBox="0 0 132 468" fill="none" xmlns="http://www.w3.org/2000/svg">
<path d="M126.5 5.5V396.21C124.245 409.341 119.842 419.24 110.746 429.11C101.704 438.923 87.8919 448.857 66.3643 461.627C45.3564 449.368 31.7673 439.677 22.6318 429.869C13.4239 419.983 8.56398 409.781 5.5 396.077V5.5H126.5Z" fill="#6C1A31" stroke="#D37E01" stroke-width="11"/>
<g clip-path="url(#clip0_601_77)">
<path d="M89.8092 188.831C89.0417 188.387 88.1702 188.149 87.2747 188.149H85.148C84.5883 188.149 84.0367 187.999 83.5809 187.69C83.2052 187.444 82.7574 187.055 82.2857 186.469H87.3946C87.9783 186.469 88.5619 186.619 89.0576 186.936C89.8811 187.46 91.0644 188.411 91.5361 189.83L89.8092 188.831ZM105.863 201.096C102.338 195.396 99.1875 191.249 97.7404 189.434C97.2447 188.807 96.9569 188.046 96.8849 187.246C96.733 185.502 95.9974 182.148 92.7834 179.762C88.2501 176.392 89.2495 173.618 89.2495 173.618C89.2495 173.618 89.5294 171.699 89.1616 169.852C89.1616 169.852 91.0165 171.239 90.9525 174.268C90.9285 175.29 91.1444 176.313 91.72 177.161C92.3437 178.073 93.3351 178.937 94.7822 178.699C94.7822 178.699 93.1192 176.852 94.3185 174.339C95.5177 171.834 92.3836 163.708 87.3867 161.329C87.3867 161.329 89.9851 165.095 87.3867 165.42C87.3867 165.42 86.851 156.105 76.4573 155.843C66.3034 155.59 59.1397 160.687 58.8119 160.925C58.9318 160.679 61.0745 156.842 71.4603 155.05C71.4603 155.05 65.9996 145.799 51.6083 152.339C51.6083 152.339 54.8063 152.87 56.4054 154.059C56.4054 154.059 43.9489 153.6 34.4186 165.817C34.4186 165.817 31.5564 170.05 33.4192 175.798L35.482 173.744C35.482 173.744 37.081 175.528 33.2833 178.24C29.4856 180.951 19.8275 188.086 26.0237 198.123C26.0237 198.123 28.4223 193.897 31.4205 195.086C31.4205 195.086 22.6897 202.951 28.6221 210.942C28.6221 210.942 31.0207 213.852 30.4211 217.681C30.4211 217.681 31.4205 216.23 31.4205 214.177L35.9537 224.158V288.572C35.9537 288.572 36.7532 308.519 57.9404 316.581C57.9404 316.581 78.9917 322.924 90.9845 308.788C90.9845 308.788 95.3818 303.239 95.118 289.888C94.8461 276.545 95.2459 261.617 95.2459 261.617C95.2459 261.617 99.7152 262.275 99.2435 266.501C99.2435 266.501 101.578 264.519 100.379 259.5C100.379 259.5 102.514 259.5 104.113 262.077C104.113 262.077 106.775 257.915 103.313 253.951C103.313 253.951 105.04 253.753 105.911 255.402C105.911 255.402 106.639 247.942 97.4446 248.798C97.4446 248.798 97.1807 247.807 94.3824 247.347C94.3824 247.347 97.0448 242.717 94.2465 240.077C94.2465 240.077 93.2471 246.158 88.45 246.158C88.45 246.158 86.0515 241.599 80.7906 244.77C80.7906 244.77 78.1922 246.086 78.592 244.041C78.592 244.041 79.2476 242.662 80.8546 243.312C80.8546 243.312 80.255 241.203 75.9935 242.519C75.9935 242.519 72.3317 244.105 72.8594 250.716C73.3951 257.32 72.1958 257.653 75.6577 259.041C79.1276 260.428 79.2556 262.077 79.1276 263.599C78.9917 265.113 79.1276 293.852 79.1276 293.852C79.1276 293.852 79.8952 304.095 65.9996 302.01C52.112 299.933 51.8081 285.266 51.8081 285.266L51.6083 208.064C51.6083 208.064 55.5019 201.23 60.0032 202.515C60.0032 202.515 59.7074 208.461 62.2019 209.555C62.2019 209.555 65.304 202.515 72.0999 204.893C72.0999 204.893 67.1988 215.302 75.298 221.351C75.298 221.351 72.4996 209.856 88.9857 215.104C88.9857 215.104 91.8799 216.198 94.8461 223.825L95.118 218.672C95.118 218.672 104.113 219.599 105.112 210.546L101.378 206.32C100.587 205.416 100.603 204.069 101.426 203.189C101.778 202.808 102.258 202.618 102.745 202.618C103.177 202.618 103.617 202.776 103.961 203.086L105.816 204.782C105.376 204.536 100.011 201.516 102.378 205.194C104.84 209.024 106.039 206.447 105.84 211.204C105.84 211.204 110.685 208.897 105.863 201.096Z" fill="#D37E01"/>
</g>
<defs>
<clipPath id="clip0_601_77">
<rect width="84" height="168" fill="white" transform="translate(24 150)"/>
</clipPath>
</defs>
</svg>
